<svg width="259" height="48" viewBox="0 0 259 48" fill="none" xmlns="http://www.w3.org/2000/svg">
<g clip-path="url(#clip0_553_48)">
<path d="M37.4285 48H29.3054V25.6229C29.3054 24.5618 29.0347 23.7607 28.4931 23.2198C27.9516 22.658 27.1393 22.3771 26.0562 22.3771H11.4035V14.2627H26.0562C26.8269 14.2627 27.6392 14.3563 28.4931 14.5436C29.3471 14.71 30.1906 14.9805 31.0238 15.355C31.8777 15.7295 32.69 16.2185 33.4607 16.8218C34.2313 17.4044 34.9082 18.1222 35.4914 18.9753C36.0746 19.8075 36.5433 20.775 36.8973 21.8778C37.2514 22.9805 37.4285 24.2289 37.4285 25.6229V48ZM8.12304 48H0V0H8.12304V48Z" fill="white"/>
<path d="M81.6053 36.6086C81.6053 38.0026 81.4283 39.2614 81.0742 40.3849C80.7201 41.4876 80.2515 42.4655 79.6683 43.3186C79.0851 44.1508 78.4082 44.8687 77.6375 45.472C76.8669 46.0546 76.0546 46.5332 75.2006 46.9077C74.3675 47.2822 73.5135 47.5631 72.6387 47.7503C71.7848 47.9168 70.9725 48 70.2018 48H55.5491C54.4244 48 53.1955 47.8023 51.8625 47.407C50.5295 47.0117 49.2902 46.3667 48.1446 45.472C47.0199 44.5566 46.0722 43.381 45.3016 41.9454C44.5517 40.4889 44.1768 38.71 44.1768 36.6086V25.6229C44.1768 23.5423 44.5517 21.7841 45.3016 20.3485C46.0722 18.8921 47.0199 17.7165 48.1446 16.8218C49.2902 15.9064 50.5295 15.251 51.8625 14.8557C53.1955 14.4603 54.4244 14.2627 55.5491 14.2627H70.2018C72.2846 14.2627 74.055 14.6372 75.513 15.3862C76.971 16.1352 78.1478 17.0819 79.0434 18.2263C79.939 19.3498 80.5847 20.5774 80.9805 21.909C81.397 23.2406 81.6053 24.4785 81.6053 25.6229V36.6086ZM73.4823 25.6853C73.4823 24.5618 73.2011 23.7295 72.6387 23.1886C72.0764 22.6476 71.2641 22.3771 70.2018 22.3771H55.6116C54.5285 22.3771 53.7058 22.658 53.1434 23.2198C52.5811 23.7607 52.2999 24.5618 52.2999 25.6229V36.6086C52.2999 37.6697 52.5811 38.4811 53.1434 39.0429C53.7058 39.6047 54.5285 39.8856 55.6116 39.8856H70.2018C71.3057 39.8856 72.1284 39.6047 72.67 39.0429C73.2115 38.4811 73.4823 37.6697 73.4823 36.6086V25.6853Z" fill="white"/>
<path d="M118.096 22.3771H99.8197C98.7158 22.3771 97.8826 22.658 97.3203 23.2198C96.7579 23.7607 96.4767 24.5618 96.4767 25.6229V48H88.3537V25.6229C88.3537 24.2289 88.5307 22.9805 88.8848 21.8778C89.2389 20.775 89.7075 19.8075 90.2907 18.9753C90.8947 18.1222 91.5821 17.4044 92.3527 16.8218C93.1234 16.2185 93.9252 15.7295 94.7584 15.355C95.6123 14.9805 96.4663 14.71 97.3203 14.5436C98.1951 14.3563 99.0074 14.2627 99.7572 14.2627H118.096V22.3771Z" fill="white"/>
<path d="M131.718 7.3342H123.595V0H131.718V7.3342ZM131.718 48H123.595V14.2627H131.718V48Z" fill="white"/>
<path d="M171.521 16.7594C171.854 17.5293 171.938 18.3095 171.771 19.1001C171.625 19.8908 171.271 20.5774 170.709 21.1599L151.932 39.8856H171.459V48H142.153C141.32 48 140.56 47.7711 139.872 47.3134C139.206 46.8349 138.706 46.2315 138.373 45.5033C138.06 44.7334 137.977 43.9532 138.123 43.1625C138.29 42.3511 138.675 41.6437 139.279 41.0403L157.962 22.3771H138.435V14.2627H167.803C168.616 14.2627 169.355 14.4811 170.021 14.9181C170.709 15.355 171.209 15.9688 171.521 16.7594Z" fill="white"/>
<path d="M214.636 36.6086C214.636 38.0026 214.459 39.2614 214.105 40.3849C213.75 41.4876 213.282 42.4655 212.699 43.3186C212.115 44.1508 211.439 44.8687 210.668 45.472C209.897 46.0546 209.085 46.5332 208.231 46.9077C207.398 47.2822 206.544 47.5631 205.669 47.7503C204.815 47.9168 204.003 48 203.232 48H188.579C187.455 48 186.226 47.8023 184.893 47.407C183.56 47.0117 182.321 46.3667 181.175 45.472C180.05 44.5566 179.103 43.381 178.332 41.9454C177.582 40.4889 177.207 38.71 177.207 36.6086V25.6229C177.207 23.5423 177.582 21.7841 178.332 20.3485C179.103 18.8921 180.05 17.7165 181.175 16.8218C182.321 15.9064 183.56 15.251 184.893 14.8557C186.226 14.4603 187.455 14.2627 188.579 14.2627H203.232C205.315 14.2627 207.085 14.6372 208.543 15.3862C210.001 16.1352 211.178 17.0819 212.074 18.2263C212.969 19.3498 213.615 20.5774 214.011 21.909C214.427 23.2406 214.636 24.4785 214.636 25.6229V36.6086ZM206.513 25.6853C206.513 24.5618 206.231 23.7295 205.669 23.1886C205.107 22.6476 204.294 22.3771 203.232 22.3771H188.642C187.559 22.3771 186.736 22.658 186.174 23.2198C185.611 23.7607 185.33 24.5618 185.33 25.6229V36.6086C185.33 37.6697 185.611 38.4811 186.174 39.0429C186.736 39.6047 187.559 39.8856 188.642 39.8856H203.232C204.336 39.8856 205.159 39.6047 205.7 39.0429C206.242 38.4811 206.513 37.6697 206.513 36.6086V25.6853Z" fill="white"/>
<path d="M259 48H250.877V29.2744C250.877 28.2133 250.689 27.2666 250.315 26.4343C249.961 25.5813 249.471 24.8531 248.846 24.2497C248.221 23.6463 247.482 23.1886 246.628 22.8765C245.795 22.5436 244.889 22.3771 243.91 22.3771H229.695V48H221.572V18.2887C221.572 17.7269 221.676 17.2068 221.884 16.7282C222.092 16.2289 222.384 15.8023 222.759 15.4486C223.134 15.0741 223.571 14.7828 224.071 14.5748C224.571 14.3667 225.102 14.2627 225.664 14.2627H243.972C244.993 14.2627 246.066 14.3771 247.19 14.606C248.336 14.8349 249.461 15.2094 250.565 15.7295C251.689 16.2289 252.752 16.8739 253.751 17.6645C254.772 18.4343 255.667 19.381 256.438 20.5046C257.23 21.6073 257.854 22.8869 258.313 24.3433C258.771 25.7997 259 27.4434 259 29.2744V48Z" fill="white"/>
</g>
<defs>
<clipPath id="clip0_553_48">
<rect width="259" height="48" fill="white"/>
</clipPath>
</defs>
</svg>
