<svg width="862" height="160" viewBox="0 0 862 160" fill="none" xmlns="http://www.w3.org/2000/svg">
<g clip-path="url(#clip0_553_44)">
<path d="M124.569 160H97.5339V85.4096C97.5339 81.8726 96.6327 79.2024 94.8304 77.3992C93.0281 75.5267 90.3246 74.5904 86.7199 74.5904H37.953V47.5423H86.7199C89.2848 47.5423 91.9883 47.8544 94.8304 48.4785C97.6725 49.0334 100.48 49.935 103.253 51.1834C106.095 52.4317 108.798 54.0616 111.363 56.0728C113.928 58.0147 116.181 60.4075 118.122 63.251C120.063 66.0251 121.623 69.2501 122.801 72.9259C123.98 76.6016 124.569 80.7629 124.569 85.4096V160ZM27.035 160H0V0H27.035V160Z" fill="white"/>
<path d="M271.598 122.029C271.598 126.675 271.008 130.871 269.83 134.616C268.651 138.292 267.092 141.552 265.151 144.395C263.21 147.169 260.957 149.562 258.392 151.573C255.827 153.515 253.124 155.111 250.282 156.359C247.509 157.607 244.667 158.544 241.755 159.168C238.913 159.723 236.209 160 233.645 160H184.878C181.134 160 177.044 159.341 172.608 158.023C168.171 156.706 164.047 154.556 160.234 151.573C156.491 148.522 153.337 144.603 150.772 139.818C148.276 134.963 147.029 129.033 147.029 122.029V85.4096C147.029 78.4742 148.276 72.6138 150.772 67.8284C153.337 62.9736 156.491 59.0551 160.234 56.0728C164.047 53.0212 168.171 50.8366 172.608 49.5189C177.044 48.2011 181.134 47.5423 184.878 47.5423H233.645C240.577 47.5423 246.469 48.7906 251.321 51.2874C256.174 53.7841 260.09 56.9398 263.071 60.7542C266.052 64.4994 268.201 68.5912 269.518 73.0299C270.904 77.4686 271.598 81.5951 271.598 85.4096V122.029ZM244.563 85.6177C244.563 81.8726 243.627 79.0984 241.755 77.2952C239.883 75.492 237.18 74.5904 233.645 74.5904H185.086C181.481 74.5904 178.743 75.5267 176.871 77.3992C175 79.2024 174.064 81.8726 174.064 85.4096V122.029C174.064 125.566 175 128.27 176.871 130.143C178.743 132.016 181.481 132.952 185.086 132.952H233.645C237.319 132.952 240.057 132.016 241.859 130.143C243.661 128.27 244.563 125.566 244.563 122.029V85.6177Z" fill="white"/>
<path d="M393.047 74.5904H332.218C328.544 74.5904 325.772 75.5267 323.9 77.3992C322.028 79.2024 321.092 81.8726 321.092 85.4096V160H294.057V85.4096C294.057 80.7629 294.647 76.6016 295.825 72.9259C297.004 69.2501 298.563 66.0251 300.504 63.251C302.515 60.4075 304.802 58.0147 307.367 56.0728C309.932 54.0616 312.601 52.4317 315.373 51.1834C318.216 49.935 321.058 49.0334 323.9 48.4785C326.811 47.8544 329.515 47.5423 332.01 47.5423H393.047V74.5904Z" fill="white"/>
<path d="M438.383 24.4473H411.348V0H438.383V24.4473ZM438.383 160H411.348V47.5423H438.383V160Z" fill="white"/>
<path d="M570.854 55.8648C571.963 58.4309 572.24 61.0316 571.686 63.6671C571.201 66.3026 570.022 68.5912 568.151 70.5332L505.658 132.952H570.646V160H473.112C470.339 160 467.809 159.237 465.522 157.711C463.303 156.116 461.64 154.105 460.531 151.678C459.491 149.111 459.213 146.511 459.699 143.875C460.253 141.17 461.536 138.812 463.546 136.801L525.726 74.5904H460.738V47.5423H558.48C561.184 47.5423 563.645 48.2705 565.863 49.7269C568.151 51.1834 569.814 53.2293 570.854 55.8648Z" fill="white"/>
<path d="M714.347 122.029C714.347 126.675 713.758 130.871 712.58 134.616C711.401 138.292 709.842 141.552 707.901 144.395C705.96 147.169 703.707 149.562 701.142 151.573C698.577 153.515 695.873 155.111 693.031 156.359C690.259 157.607 687.416 158.544 684.505 159.168C681.663 159.723 678.959 160 676.394 160H627.627C623.884 160 619.794 159.341 615.358 158.023C610.921 156.706 606.797 154.556 602.984 151.573C599.241 148.522 596.087 144.603 593.522 139.818C591.026 134.963 589.779 129.033 589.779 122.029V85.4096C589.779 78.4742 591.026 72.6138 593.522 67.8284C596.087 62.9736 599.241 59.0551 602.984 56.0728C606.797 53.0212 610.921 50.8366 615.358 49.5189C619.794 48.2011 623.884 47.5423 627.627 47.5423H676.394C683.326 47.5423 689.219 48.7906 694.071 51.2874C698.924 53.7841 702.84 56.9398 705.821 60.7542C708.802 64.4994 710.951 68.5912 712.268 73.0299C713.654 77.4686 714.347 81.5951 714.347 85.4096V122.029ZM687.312 85.6177C687.312 81.8726 686.377 79.0984 684.505 77.2952C682.633 75.492 679.93 74.5904 676.394 74.5904H627.835C624.231 74.5904 621.493 75.5267 619.621 77.3992C617.749 79.2024 616.813 81.8726 616.813 85.4096V122.029C616.813 125.566 617.749 128.27 619.621 130.143C621.493 132.016 624.231 132.952 627.835 132.952H676.394C680.068 132.952 682.807 132.016 684.609 130.143C686.411 128.27 687.312 125.566 687.312 122.029V85.6177Z" fill="white"/>
<path d="M862 160H834.965V97.5813C834.965 94.0442 834.341 90.8886 833.093 88.1144C831.915 85.2709 830.286 82.8435 828.206 80.8323C826.127 78.821 823.666 77.2952 820.824 76.2549C818.051 75.1452 815.035 74.5904 811.777 74.5904H764.466V160H737.431V60.9623C737.431 59.0897 737.778 57.3559 738.471 55.7607C739.164 54.0962 740.135 52.6745 741.382 51.4955C742.63 50.2471 744.086 49.2761 745.75 48.5826C747.413 47.889 749.181 47.5423 751.053 47.5423H811.985C815.382 47.5423 818.952 47.9237 822.695 48.6866C826.508 49.4495 830.251 50.6979 833.925 52.4317C837.669 54.0962 841.204 56.2462 844.531 58.8817C847.928 61.4478 850.909 64.6034 853.474 68.3485C856.108 72.0243 858.187 76.2896 859.712 81.1443C861.237 85.9991 862 91.4781 862 97.5813V160Z" fill="white"/>
</g>
<defs>
<clipPath id="clip0_553_44">
<rect width="862" height="160" fill="white"/>
</clipPath>
</defs>
</svg>
