<svg width="48" height="48" viewBox="0 0 48 48" fill="none" xmlns="http://www.w3.org/2000/svg">
<path d="M7 4H41V44H7V4Z" fill="url(#paint0_linear_554_58)"/>
<path d="M11.25 39.7144H36.75V44.0001H11.25V39.7144Z" fill="#292C2E"/>
<path d="M14.0833 41.1431H26.8333V42.5716H14.0833V41.1431ZM28.2499 41.1431H33.9166V42.5716H28.2499V41.1431Z" fill="#F6B44D"/>
<path opacity="0.2" d="M35.3333 39.7144H41V44.0001H35.3333V39.7144ZM7 39.7144H12.6667V44.0001H7V39.7144Z" fill="#292C2F"/>
<path opacity="0.2" d="M7 39.7144H12.6667V44.0001H11.25L7 39.7144ZM35.3333 39.7144H41V44.0001H35.3333V39.7144Z" fill="#292C2F"/>
<path opacity="0.2" d="M36.0912 8.9502L40.9999 13.8973V44.0002H21.1666L9.83325 32.5716L36.0912 8.9502Z" fill="url(#paint1_linear_554_58)"/>
<path d="M16.9166 6.85693C15.038 6.85693 13.2363 7.60948 11.9079 8.94903C10.5795 10.2886 9.83325 12.1054 9.83325 13.9998V20.8112C10.2573 21.1943 10.6008 21.6594 10.8432 22.1789C11.0855 22.6985 11.2219 23.2618 11.2443 23.8355C11.2477 23.8902 11.2497 23.945 11.2501 23.9998C11.2501 24.0952 11.2453 24.1906 11.2359 24.2855C11.2359 24.2879 11.2359 24.2903 11.2359 24.2927C11.1591 25.4042 10.656 26.4418 9.83338 27.1856V32.5713L14.0833 36.857H33.9167L38.1667 32.5713V27.1884C37.7426 26.8053 37.3991 26.3402 37.1568 25.8207C36.9144 25.3012 36.778 24.7378 36.7557 24.1641C36.7522 24.1094 36.7502 24.0547 36.7499 23.9998C36.7496 23.902 36.7543 23.8043 36.764 23.707C36.8409 22.5955 37.3439 21.5579 38.1665 20.8141V13.9998C38.1665 12.1054 37.4203 10.2886 36.0919 8.94905C34.7635 7.6095 32.9619 6.85695 31.0833 6.85693H16.9166Z" fill="url(#paint2_linear_554_58)"/>
<path opacity="0.2" d="M7 42.5713H11.25V43.9999H7V42.5713ZM36.75 42.5713H41V43.9999H36.75V42.5713Z" fill="#292C2F"/>
<path fill-rule="evenodd" clip-rule="evenodd" d="M28.2002 14C30.2987 14.0001 31.9999 15.7013 32 17.7998V26.2002C31.9999 28.2987 30.2987 29.9999 28.2002 30H19.7998C17.7013 29.9999 16.0001 28.2987 16 26.2002V17.7998C16.0001 15.7013 17.7013 14.0001 19.7998 14H28.2002ZM19.334 16V28.0156H21.3643V16H19.334ZM22.1855 19.5703V21.6016H25.8486C26.1193 21.6016 26.3226 21.672 26.458 21.8125C26.5934 21.9479 26.6611 22.1484 26.6611 22.4141V28.0156H28.6934V22.4141C28.6934 22.0652 28.6491 21.7526 28.5605 21.4766C28.472 21.2005 28.3538 20.9583 28.208 20.75C28.0622 20.5366 27.8928 20.3567 27.7002 20.2109C27.5076 20.06 27.3043 19.9375 27.0908 19.8438C26.8826 19.7501 26.6714 19.6823 26.458 19.6406C26.2446 19.5938 26.0412 19.5703 25.8486 19.5703H22.1855Z" fill="#292C2E"/>
<defs>
<linearGradient id="paint0_linear_554_58" x1="1.33442" y1="43.9984" x2="1.33442" y2="3.99856" gradientUnits="userSpaceOnUse">
<stop stop-color="#7F8C8D"/>
<stop offset="1" stop-color="#AFB0B3"/>
</linearGradient>
<linearGradient id="paint1_linear_554_58" x1="-595.717" y1="-719.148" x2="-580.003" y2="-703.566" gradientUnits="userSpaceOnUse">
<stop stop-color="#292C2F"/>
<stop offset="1" stop-opacity="0"/>
</linearGradient>
<linearGradient id="paint2_linear_554_58" x1="1.33251" y1="36.8577" x2="1.33251" y2="6.85779" gradientUnits="userSpaceOnUse">
<stop stop-color="#EEF1F2"/>
<stop offset="1" stop-color="#F9FAFB"/>
</linearGradient>
</defs>
</svg>
