<svg width="48" height="48" viewBox="0 0 48 48" fill="none" xmlns="http://www.w3.org/2000/svg">
<path d="M8 5H40.381V43.0952H8V5Z" fill="url(#paint0_linear_144_2)"/>
<path d="M12.0476 39.0136H36.3333V43.0952H12.0476V39.0136Z" fill="#292C2E"/>
<path d="M14.746 40.3741H26.8889V41.7347H14.746V40.3741ZM28.2381 40.3741H33.6349V41.7347H28.2381V40.3741Z" fill="#F6B44D"/>
<path opacity="0.2" d="M34.9841 39.0136H40.381V43.0952H34.9841V39.0136ZM8 39.0136H13.3968V43.0952H8V39.0136Z" fill="#292C2F"/>
<path opacity="0.2" d="M8 39.0136H13.3968V43.0952H12.0476L8 39.0136ZM34.9841 39.0136H40.381V43.0952H34.9841V39.0136Z" fill="#292C2F"/>
<path opacity="0.2" d="M35.706 9.71428L40.381 14.4258V43.0952H21.4921L10.6984 32.2109L35.706 9.71428Z" fill="url(#paint1_linear_144_2)"/>
<path d="M17.4445 7.72108C15.6553 7.72108 13.9394 8.4378 12.6743 9.71356C11.4092 10.9893 10.6984 12.7196 10.6984 14.5238V21.0109C11.1023 21.3757 11.4294 21.8187 11.6602 22.3135C11.8911 22.8083 12.021 23.3448 12.0422 23.8911C12.0456 23.9432 12.0474 23.9954 12.0478 24.0476C12.0478 24.1385 12.0433 24.2293 12.0343 24.3197C12.0343 24.322 12.0343 24.3243 12.0343 24.3266C11.9611 25.3851 11.482 26.3733 10.6985 27.0817V32.2109L14.7461 36.2926H33.635L37.6826 32.2109V27.0844C37.2787 26.7196 36.9517 26.2766 36.7208 25.7818C36.49 25.287 36.3601 24.7505 36.3388 24.2041C36.3355 24.152 36.3336 24.0999 36.3333 24.0477C36.3331 23.9545 36.3376 23.8614 36.3468 23.7688C36.42 22.7102 36.8991 21.722 37.6825 21.0137V14.5238C37.6825 12.7196 36.9718 10.9893 35.7067 9.71357C34.4415 8.43782 32.7257 7.7211 30.9365 7.72108H17.4445Z" fill="url(#paint2_linear_144_2)"/>
<path opacity="0.2" d="M8 41.7347H12.0476V43.0952H8V41.7347ZM36.3333 41.7347H40.381V43.0952H36.3333V41.7347Z" fill="#292C2F"/>
<path d="M40.3809 27.8571L27.0476 14.5238H21.3333V20.2381L40.3809 39.2857V27.8571Z" fill="url(#paint3_linear_144_2)"/>
<path d="M39.6 43.0952L18.4762 21.9714L24.1905 26.9048L29.9048 21.9714L40.381 32.4476V43.0952H39.6Z" fill="url(#paint4_linear_144_2)"/>
<path d="M30.8571 43.0952L17.5238 29.7619H29.9048L30.8571 27.8571L40.3809 38.3333V43.0952H30.8571Z" fill="url(#paint5_linear_144_2)"/>
<path d="M21.3333 14.5238V20.2381H22.2857V15.4762H26.0952V20.2381H27.0476V14.5238H26.0952H22.2857H21.3333ZM19.2314 21.1905L18.4762 21.968L24.1905 27.8571L29.9048 21.968L29.1495 21.1905L24.1905 26.3021L19.2314 21.1905ZM17.5238 27.8571V29.7619H18.4762H29.9048H30.8571V27.8571H29.9048V28.8095H18.4762V27.8571H17.5238Z" fill="url(#paint6_linear_144_2)"/>
<defs>
<linearGradient id="paint0_linear_144_2" x1="2.60421" y1="43.0937" x2="2.60421" y2="4.99863" gradientUnits="userSpaceOnUse">
<stop stop-color="#7F8C8D"/>
<stop offset="1" stop-color="#AFB0B3"/>
</linearGradient>
<linearGradient id="paint1_linear_144_2" x1="-566.016" y1="-683.713" x2="-551.05" y2="-668.872" gradientUnits="userSpaceOnUse">
<stop stop-color="#292C2F"/>
<stop offset="1" stop-opacity="0"/>
</linearGradient>
<linearGradient id="paint2_linear_144_2" x1="2.60248" y1="36.2932" x2="2.60248" y2="7.7219" gradientUnits="userSpaceOnUse">
<stop stop-color="#EEF1F2"/>
<stop offset="1" stop-color="#F9FAFB"/>
</linearGradient>
<linearGradient id="paint3_linear_144_2" x1="24.1905" y1="16.9048" x2="29.1325" y2="21.1957" gradientUnits="userSpaceOnUse">
<stop stop-opacity="0.1"/>
<stop offset="1" stop-opacity="0"/>
</linearGradient>
<linearGradient id="paint4_linear_144_2" x1="24" y1="24.5" x2="24.6705" y2="28.7862" gradientUnits="userSpaceOnUse">
<stop stop-opacity="0.05"/>
<stop offset="1" stop-opacity="0"/>
</linearGradient>
<linearGradient id="paint5_linear_144_2" x1="22.7619" y1="30.7143" x2="23.3723" y2="35.4227" gradientUnits="userSpaceOnUse">
<stop stop-opacity="0.05"/>
<stop offset="1" stop-opacity="0"/>
</linearGradient>
<linearGradient id="paint6_linear_144_2" x1="17.5238" y1="29.7619" x2="17.5238" y2="14.5238" gradientUnits="userSpaceOnUse">
<stop stop-color="#3E3E3E"/>
<stop offset="1" stop-color="#5C5C5C"/>
</linearGradient>
</defs>
</svg>
