<svg width="256" height="256" viewBox="0 0 256 256" fill="none" xmlns="http://www.w3.org/2000/svg">
<path d="M28 75.5C28 49.2665 49.2665 28 75.5 28H180.5C206.734 28 228 49.2665 228 75.5V180.5C228 206.734 206.734 228 180.5 228H75.5C49.2665 228 28 206.734 28 180.5V75.5Z" fill="url(#paint0_linear_516_26)"/>
<path opacity="0.8" d="M186.659 203.195H161.269V133.176C161.269 129.855 160.422 127.349 158.729 125.656C157.037 123.898 154.498 123.02 151.112 123.02H105.312V97.6289H151.112C153.521 97.6289 156.06 97.9219 158.729 98.5078C161.399 99.0286 164.035 99.875 166.64 101.047C169.309 102.219 171.848 103.749 174.257 105.637C176.666 107.46 178.782 109.706 180.604 112.375C182.427 114.979 183.892 118.007 184.999 121.457C186.106 124.908 186.659 128.814 186.659 133.176V203.195ZM95.0576 203.195H69.667V53H95.0576V203.195Z" fill="white"/>
<defs>
<linearGradient id="paint0_linear_516_26" x1="28" y1="28" x2="228" y2="228" gradientUnits="userSpaceOnUse">
<stop stop-color="#5BB0FF"/>
<stop offset="0.5" stop-color="#0085FF"/>
<stop offset="1" stop-color="#005CB0"/>
</linearGradient>
</defs>
</svg>
